<?xml version="1.0" encoding="UTF-8" standalone="no"?>
<!DOCTYPE svg PUBLIC "-//W3C//DTD SVG 1.1//EN" "http://www.w3.org/Graphics/SVG/1.1/DTD/svg11.dtd">
<svg width="100%" height="100%" viewBox="0 0 500 500" version="1.1" xmlns="http://www.w3.org/2000/svg" xmlns:xlink="http://www.w3.org/1999/xlink" xml:space="preserve" xmlns:serif="http://www.serif.com/" style="fill-rule:evenodd;clip-rule:evenodd;stroke-linejoin:round;stroke-miterlimit:2;">
    <g transform="matrix(3.97628,0,0,3.97628,217.257,140.586)">
        <path d="M0,-30.301C1.891,-27.733 3.99,-24.952 5.083,-21.909C6.688,-17.439 5.411,-14.263 4.317,-10.124C3.377,-6.566 3.807,-3.39 5.633,-0.225C5.953,0.33 6.716,-0.197 6.454,-0.746C4.482,-4.868 5.032,-8.27 6.238,-12.478C6.864,-14.664 7.27,-16.676 6.926,-18.947C6.231,-23.528 3.138,-27.104 0.227,-30.487C0.103,-30.631 -0.111,-30.452 0,-30.301" style="fill-rule:nonzero;"/>
    </g>
    <g transform="matrix(3.97628,0,0,3.97628,213.3,189.15)">
        <path d="M0,-36.432C2.521,-32.904 3.805,-29.921 3.271,-25.508C2.955,-22.887 2.34,-20.38 2.396,-17.718C2.53,-11.295 7.729,-6.987 6.453,-0.404C6.313,0.318 7.43,0.445 7.581,-0.264C8.227,-3.303 7.991,-5.716 6.642,-8.504C4.561,-12.803 3.165,-16.076 3.704,-21.108C3.984,-23.728 4.886,-26.409 4.483,-29.069C4.032,-32.054 2.193,-34.415 0.345,-36.688C0.192,-36.877 -0.143,-36.632 0,-36.432" style="fill-rule:nonzero;"/>
    </g>
    <g transform="matrix(3.97628,0,0,3.97628,283.4,141.165)">
        <path d="M0,-30.624C-3.108,-27.012 -6.335,-23.199 -6.773,-18.26C-7.344,-11.835 -3.05,-7.503 -6.24,-0.86C-6.511,-0.295 -5.694,0.14 -5.381,-0.403C-3.405,-3.826 -3.167,-7.195 -4.301,-10.956C-5.281,-14.203 -6.223,-17.045 -5.353,-20.514C-4.428,-24.198 -1.964,-27.46 0.24,-30.455C0.353,-30.609 0.121,-30.764 0,-30.624" style="fill-rule:nonzero;"/>
    </g>
    <g transform="matrix(3.97628,0,0,3.97628,286.931,190.211)">
        <path d="M0,-36.96C-4.457,-31.493 -4.102,-28.276 -3.363,-21.372C-2.82,-16.293 -4.304,-13.12 -6.309,-8.753C-7.611,-5.916 -7.899,-3.606 -7.239,-0.518C-7.088,0.19 -5.975,0.041 -6.114,-0.683C-7.377,-7.223 -2.186,-11.63 -2.055,-17.993C-2.013,-20.031 -2.312,-22.031 -2.622,-24.041C-3.434,-29.297 -2.97,-32.079 0.337,-36.694C0.478,-36.891 0.155,-37.15 0,-36.96" style="fill-rule:nonzero;"/>
    </g>
    <g transform="matrix(-3.79634,-1.18262,-1.18262,3.79634,265.877,103.324)">
        <path d="M-5.753,-19.58C-1.752,-14.236 -0.661,-5.666 -4.976,-0.102C-5.242,0.241 -5.965,0.044 -5.753,-0.442C-2.951,-6.858 -2.206,-13.119 -5.955,-19.44C-6.035,-19.575 -5.849,-19.709 -5.753,-19.58" style="fill-rule:nonzero;"/>
    </g>
    <g transform="matrix(-3.89617,-0.794166,-0.794166,3.89617,272.295,179.396)">
        <path d="M-0.333,-15.74C-2.875,-10.072 2.262,-5.441 0.639,0.347C0.462,0.976 -0.467,0.708 -0.333,0.077C0.886,-5.679 -4.122,-10.563 -0.811,-16.014C-0.622,-16.323 -0.191,-16.058 -0.333,-15.74" style="fill-rule:nonzero;"/>
    </g>
    <g transform="matrix(-3.73259,1.37061,1.37061,3.73259,237.246,100.603)">
        <path d="M5.582,-19.318C2.164,-12.853 3.165,-6.667 6.325,-0.351C6.551,0.104 5.878,0.405 5.582,0.059C0.998,-5.306 1.623,-13.886 5.377,-19.452C5.466,-19.585 5.655,-19.455 5.582,-19.318" style="fill-rule:nonzero;"/>
    </g>
    <g transform="matrix(-3.81443,1.12292,1.12292,3.81443,233.699,178.216)">
        <path d="M0.582,-16.199C4.403,-10.993 -0.207,-5.73 1.52,-0.028C1.683,0.508 0.784,0.85 0.582,0.316C-1.539,-5.302 3.146,-10.49 0.137,-15.883C-0.01,-16.147 0.396,-16.454 0.582,-16.199" style="fill-rule:nonzero;"/>
    </g>
    <g transform="matrix(3.97628,0,0,3.97628,72.9616,174.155)">
        <path d="M0,-19.301C7.363,-17.504 12.728,-15.155 15.759,-7.925C17.385,-4.044 19.621,-1.251 23.711,0.135C24.229,0.31 24.543,-0.546 24.045,-0.769C19.841,-2.652 18.006,-5.638 16.24,-9.702C15.529,-11.34 14.766,-12.845 13.528,-14.163C10.004,-17.918 4.909,-18.791 0.062,-19.585C-0.099,-19.611 -0.162,-19.341 0,-19.301" style="fill-rule:nonzero;"/>
    </g>
    <g transform="matrix(3.97628,0,0,3.97628,85.6495,212.073)">
        <path d="M0,-23.525C3.22,-22.697 6.089,-21.723 8.333,-19.083C10.289,-16.779 11.38,-13.749 13.299,-11.377C17.434,-6.264 24.886,-6.017 28.036,-0.166C28.378,0.47 29.415,0.046 29.081,-0.613C25.785,-7.128 18.071,-7.046 13.729,-12.643C11.741,-15.205 10.632,-18.492 8.22,-20.718C6.006,-22.761 2.971,-23.397 0.113,-23.944C-0.157,-23.995 -0.274,-23.595 0,-23.525" style="fill-rule:nonzero;"/>
    </g>
    <g transform="matrix(3.97628,0,0,3.97628,123.269,162.564)">
        <path d="M0,-27.233C-0.063,-22.316 -0.078,-17.121 3.018,-13.004C6.857,-7.897 12.581,-7.525 14.364,-0.35C14.495,0.177 15.397,0.027 15.313,-0.522C14.66,-4.82 12.296,-7.439 8.75,-9.75C2.044,-14.119 0.784,-19.61 0.29,-27.245C0.279,-27.41 0.002,-27.399 0,-27.233" style="fill-rule:nonzero;"/>
    </g>
    <g transform="matrix(3.97628,0,0,3.97628,141.3,200.612)">
        <path d="M0,-32.731C0.043,-29.803 0.162,-26.714 1.774,-24.16C3.627,-21.225 6.975,-19.418 9.223,-16.818C13.7,-11.638 12.19,-4.446 17.913,-0.156C18.499,0.284 19.178,-0.606 18.603,-1.059C13.451,-5.12 14.57,-12.014 10.605,-16.952C9.039,-18.901 7.089,-20.372 5.253,-22.04C1.942,-25.047 0.774,-28.354 0.434,-32.73C0.412,-33.003 -0.004,-33.015 0,-32.731" style="fill-rule:nonzero;"/>
    </g>
    <g transform="matrix(-3.67013,1.53002,1.53002,3.67013,192.148,114.914)">
        <path d="M2.293,-18.86C6.343,-13.451 7.352,-4.946 3.043,0.662C2.758,1.032 2.089,0.724 2.293,0.262C5.151,-6.177 5.825,-12.426 2.097,-18.714C2.028,-18.832 2.208,-18.974 2.293,-18.86" style="fill-rule:nonzero;"/>
    </g>
    <g transform="matrix(3.97628,0,0,3.97628,188.771,185.813)">
        <path d="M0,-14.459C5.046,-10.772 2.616,-4.073 6.883,0.2C7.282,0.599 8.012,-0.016 7.639,-0.455C5.305,-3.203 5.138,-5.894 4.42,-9.261C3.883,-11.78 2.55,-13.657 0.308,-14.91C0.042,-15.058 -0.254,-14.644 0,-14.459" style="fill-rule:nonzero;"/>
    </g>
    <g transform="matrix(-1.98491,3.44543,3.44543,1.98491,129.297,126.969)">
        <path d="M8.474,-14.548C5.006,-8.028 6.035,-1.928 9.135,4.369C9.331,4.769 8.817,5.297 8.474,4.902C3.836,-0.453 4.488,-9.103 8.264,-14.673C8.342,-14.788 8.54,-14.672 8.474,-14.548" style="fill-rule:nonzero;"/>
    </g>
    <g transform="matrix(3.97628,0,0,3.97628,132.375,212.55)">
        <path d="M0,-9.603C0.75,-7.44 2.142,-5.805 4.241,-4.823C7.539,-3.28 10.416,-2.948 12.887,0.033C13.292,0.521 14.1,0.024 13.727,-0.525C12.681,-2.065 11.255,-3.284 9.552,-4.048C8.468,-4.535 7.299,-4.757 6.18,-5.138C3.507,-6.046 1.758,-7.262 0.492,-9.84C0.353,-10.124 -0.1,-9.893 0,-9.603" style="fill-rule:nonzero;"/>
    </g>
    <g transform="matrix(3.97628,0,0,3.97628,12.2494,233.52)">
        <path d="M0,3.991C2.951,2.532 5.928,1.098 9.19,0.508C13.595,-0.29 16.354,1.075 20.063,2.941C23.534,4.687 26.898,5.018 30.571,3.674C31.158,3.459 30.88,2.577 30.275,2.748C23.042,4.788 19.183,-0.619 12.509,-0.859C7.858,-1.027 3.729,1.433 -0.121,3.724C-0.28,3.818 -0.173,4.076 0,3.991" style="fill-rule:nonzero;"/>
    </g>
    <g transform="matrix(3.97628,0,0,3.97628,35.5615,249.02)">
        <path d="M0,2.108C4.468,-0.015 7.77,-0.049 12.895,1.385C15.161,2.019 17.228,2.872 19.59,3.145C25.614,3.842 30.511,-0.291 36.516,2.006C37.199,2.268 37.631,1.231 36.952,0.956C30.305,-1.734 24.864,3.027 18.07,1.753C14.729,1.126 11.462,-0.949 8.038,-1.018C5.017,-1.079 2.369,0.302 -0.211,1.729C-0.458,1.866 -0.25,2.227 0,2.108" style="fill-rule:nonzero;"/>
    </g>
    <g transform="matrix(3.97628,0,0,3.97628,23.0482,229.119)">
        <path d="M0,-11.331C2.847,-7.852 5.819,-4.223 10.229,-2.718C16.565,-0.555 22.146,-4.405 28.206,-0.034C28.699,0.321 29.352,-0.323 28.868,-0.747C26.022,-3.242 22.773,-4.064 19.042,-3.734C15.224,-3.396 11.979,-2.853 8.348,-4.663C5.192,-6.235 2.632,-9 0.227,-11.517C0.098,-11.652 -0.121,-11.478 0,-11.331" style="fill-rule:nonzero;"/>
    </g>
    <g transform="matrix(3.97628,0,0,3.97628,47.2808,237.277)">
        <path d="M0,-13.176C1.909,-10.972 3.942,-8.759 6.774,-7.797C9.821,-6.761 13.248,-7.441 16.386,-7.043C23.547,-6.134 27.35,0.502 34.707,0.247C35.441,0.221 35.261,-0.89 34.542,-0.879C28.224,-0.775 24.878,-6.335 19.03,-7.753C16.756,-8.304 14.463,-8.277 12.147,-8.375C6.587,-8.611 4.009,-9.703 0.312,-13.477C0.115,-13.678 -0.182,-13.385 0,-13.176" style="fill-rule:nonzero;"/>
    </g>
    <g transform="matrix(-1.83,3.53014,3.53014,1.83,113.57,160.099)">
        <path d="M8,-15.564C12.034,-10.184 13.073,-1.575 8.707,3.984C8.396,4.379 7.812,3.943 8,3.513C10.859,-2.994 11.666,-8.909 7.794,-15.434C7.722,-15.554 7.917,-15.675 8,-15.564" style="fill-rule:nonzero;"/>
    </g>
    <g transform="matrix(-1.45402,3.7009,3.7009,1.45402,171.305,184.71)">
        <path d="M7.897,-10.517C5.284,-4.887 10.603,-0.194 8.888,5.542C8.708,6.146 7.759,6.016 7.897,5.366C9.1,-0.347 4.029,-5.357 7.398,-10.75C7.581,-11.043 8.051,-10.848 7.897,-10.517" style="fill-rule:nonzero;"/>
    </g>
    <g transform="matrix(0.697653,3.9146,3.9146,-0.697653,41.5675,230.169)">
        <path d="M11.308,-6.677C7.873,-0.164 8.806,5.995 12.008,12.264C12.224,12.687 11.621,13.117 11.308,12.741C6.765,7.298 7.283,-1.145 11.09,-6.792C11.176,-6.92 11.384,-6.821 11.308,-6.677" style="fill-rule:nonzero;"/>
    </g>
    <g transform="matrix(0.458824,3.94972,3.94972,-0.458824,136.109,237.096)">
        <path d="M7.437,-8.165C11.224,-3.005 6.672,2.27 8.395,7.919C8.585,8.542 7.666,8.837 7.437,8.232C5.315,2.621 10.002,-2.461 6.977,-7.863C6.803,-8.171 7.225,-8.452 7.437,-8.165" style="fill-rule:nonzero;"/>
    </g>
    <g transform="matrix(3.97628,0,0,3.97628,63.413,322.483)">
        <path d="M0,20.702C1.449,17.392 2.951,13.926 5.464,11.264C8.317,8.244 11.628,7.892 15.392,6.858C18.859,5.905 21.494,3.941 23.228,0.791C23.537,0.23 22.712,-0.172 22.369,0.335C19.773,4.165 16.634,5.285 12.308,6.391C10.348,6.892 8.519,7.439 6.857,8.645C2.921,11.5 1.263,16.207 -0.275,20.602C-0.338,20.782 -0.075,20.874 0,20.702" style="fill-rule:nonzero;"/>
    </g>
    <g transform="matrix(3.97628,0,0,3.97628,86.3366,298.189)">
        <path d="M0,24.633C1.796,20.683 3.696,18.058 7.827,16.338C10.253,15.327 12.748,14.599 15.015,13.219C20.468,9.899 21.645,3.113 27.977,1.03C28.676,0.801 28.219,-0.224 27.529,-0.014C25.2,0.695 23.26,1.84 21.698,3.734C18.571,7.522 17.254,10.959 12.481,13.284C9.789,14.596 6.574,15.142 4.187,17.025C1.791,18.913 0.657,21.705 -0.396,24.467C-0.482,24.693 -0.102,24.857 0,24.633" style="fill-rule:nonzero;"/>
    </g>
    <g transform="matrix(3.97628,0,0,3.97628,29.7311,313.38)">
        <path d="M0,8.676C4.682,9.563 9.6,10.45 14.096,8.36C15.631,7.646 16.885,6.642 18.063,5.438C21.432,1.999 23.722,-0.41 28.903,-0.803C29.528,-0.849 29.48,-1.774 28.854,-1.774C24.907,-1.772 21.875,-0.296 19.187,2.563C16.861,5.036 14.872,7.277 11.429,8.257C7.777,9.298 3.719,8.795 0.025,8.384C-0.166,8.364 -0.182,8.642 0,8.676" style="fill-rule:nonzero;"/>
    </g>
    <g transform="matrix(3.97628,0,0,3.97628,48.63,283.094)">
        <path d="M0,12.525C2.643,12.944 5.297,13.338 7.896,12.536C11.04,11.564 13.214,8.957 15.859,7.137C18.191,5.532 20.413,4.413 23.244,4.003C25.122,3.73 27.132,4.068 29.026,3.755C31.435,3.357 33.404,2.235 35.173,0.576C35.7,0.082 35.026,-0.813 34.475,-0.322C29.842,3.809 24.213,1.75 18.945,4.068C17.087,4.885 15.416,6.027 13.812,7.263C9.105,10.891 6.933,12.747 0.057,12.099C-0.184,12.077 -0.244,12.487 0,12.525" style="fill-rule:nonzero;"/>
    </g>
    <g transform="matrix(0.86565,3.88091,3.88091,-0.86565,56.9601,275.582)">
        <path d="M8.428,-8.776C12.434,-3.379 13.458,5.098 9.165,10.699C8.829,11.138 8.203,10.769 8.428,10.264C11.274,3.885 11.927,-2.343 8.224,-8.639C8.145,-8.775 8.334,-8.904 8.428,-8.776" style="fill-rule:nonzero;"/>
    </g>
    <g transform="matrix(1.26065,3.77115,3.77115,-1.26065,125.445,259.991)">
        <path d="M7.701,-5.593C5.104,-0.024 10.282,4.762 8.673,10.492C8.497,11.121 7.567,10.86 7.701,10.229C8.912,4.5 3.862,-0.483 7.221,-5.864C7.41,-6.167 7.849,-5.911 7.701,-5.593" style="fill-rule:nonzero;"/>
    </g>
    <g transform="matrix(3.97628,0,0,3.97628,90.9714,361.664)">
        <path d="M0,14.783C0.645,11.639 2.015,8.737 4.118,6.3C6.544,3.488 9.451,2.214 12.717,0.696C13.192,0.475 12.856,-0.153 12.411,-0.095C5.488,0.794 0.377,8.267 -0.245,14.755C-0.26,14.915 -0.031,14.936 0,14.783" style="fill-rule:nonzero;"/>
    </g>
    <g transform="matrix(3.97628,0,0,3.97628,149.387,311.464)">
        <path d="M0,12.145C2.269,11.798 4.125,10.707 5.451,8.817C6.322,7.577 6.853,6.142 7.657,4.864C8.707,3.196 10.119,2.043 11.827,1.082C12.319,0.805 11.909,-0.048 11.384,0.186C5.866,2.649 5.898,9.937 -0.104,11.609C-0.401,11.691 -0.312,12.193 0,12.145" style="fill-rule:nonzero;"/>
    </g>
    <g transform="matrix(3.97628,0,0,3.97628,202.509,369.888)">
        <path d="M0,30.489C-0.778,27.824 -1.517,25.188 -1.754,22.415C-2.192,17.283 -0.471,14.45 2.42,10.574C4.74,7.464 5.691,4.21 4.998,0.357C4.891,-0.239 3.963,-0.236 4.026,0.405C4.526,5.467 2.527,8.34 -0.241,12.209C-1.378,13.799 -2.251,15.466 -2.631,17.401C-3.528,21.968 -1.864,26.374 -0.278,30.574C-0.22,30.728 0.047,30.649 0,30.489" style="fill-rule:nonzero;"/>
    </g>
    <g transform="matrix(3.97628,0,0,3.97628,214.457,322.841)">
        <path d="M0,36.902C-1.132,32.781 -0.966,28.502 1.127,24.736C2.384,22.475 3.688,20.251 4.42,17.75C6.119,11.946 2.902,6.467 6.208,0.946C6.578,0.328 5.696,-0.369 5.305,0.256C1.495,6.339 5.279,12.531 2.801,18.978C1.566,22.191 -0.969,24.993 -1.68,28.381C-2.306,31.365 -1.38,34.219 -0.419,37.01C-0.33,37.271 0.075,37.175 0,36.902" style="fill-rule:nonzero;"/>
    </g>
    <g transform="matrix(3.97628,0,0,3.97628,139.997,362.209)">
        <path d="M0,26.887C4.078,24.603 8.381,22.149 10.542,17.796C11.403,16.063 11.664,14.236 11.798,12.32C12.125,7.648 12.447,4.524 16.097,1.008C16.489,0.631 15.915,-0.081 15.48,0.267C11.813,3.199 11.035,6.722 10.758,11.235C10.291,18.856 5.836,22.648 -0.154,26.64C-0.291,26.732 -0.145,26.968 0,26.887" style="fill-rule:nonzero;"/>
    </g>
    <g transform="matrix(3.97628,0,0,3.97628,144.997,316.085)">
        <path d="M0,32.525C2.525,31.016 5.11,29.373 6.536,26.706C8.29,23.423 8.027,19.317 9.41,15.882C11.863,9.788 18.427,7.614 19.257,0.72C19.344,-0.006 18.233,-0.145 18.129,0.58C17.217,6.875 11.024,9.203 8.651,14.769C7.746,16.891 7.318,19.089 6.858,21.334C5.817,26.413 4.073,29.207 -0.211,32.146C-0.438,32.301 -0.244,32.67 0,32.525" style="fill-rule:nonzero;"/>
    </g>
    <g transform="matrix(3.97628,0,0,3.97628,119.801,382.066)">
        <path d="M0,15.646C6.353,13.885 12.684,7.59 12.445,0.581C12.429,0.118 11.733,-0.038 11.607,0.451C10.673,4.086 9.82,7.212 7.348,10.164C5.359,12.538 2.8,14.272 -0.065,15.411C-0.192,15.461 -0.137,15.684 0,15.646" style="fill-rule:nonzero;"/>
    </g>
    <g transform="matrix(3.97628,0,0,3.97628,171.378,320.315)">
        <path d="M0,13.842C0.666,7.655 7.687,6.377 9.253,0.552C9.398,0.012 8.501,-0.313 8.309,0.225C7.514,2.45 6.379,4.061 4.563,5.618C3.671,6.384 2.655,7.001 1.82,7.837C0.167,9.491 -0.578,11.507 -0.545,13.806C-0.541,14.113 -0.034,14.155 0,13.842" style="fill-rule:nonzero;"/>
    </g>
    <g transform="matrix(3.97628,-0.00306591,-0.00306591,-3.97628,233.72,485.364)">
        <path d="M-0.008,-0.001C-3.418,6.488 -2.562,12.614 0.649,18.914C0.85,19.311 0.324,19.852 -0.008,19.453C-4.558,13.96 -4.03,5.558 -0.218,-0.124C-0.141,-0.238 0.057,-0.124 -0.008,-0.001" style="fill-rule:nonzero;"/>
    </g>
    <g transform="matrix(3.96892,0.241778,0.241778,-3.96892,237.421,400.807)">
        <path d="M0.513,-0.066C4.331,5.009 -0.239,10.421 1.439,15.997C1.622,16.602 0.747,17.015 0.513,16.397C-1.593,10.826 3.059,5.465 0.044,0.215C-0.111,-0.057 0.33,-0.31 0.513,-0.066" style="fill-rule:nonzero;"/>
    </g>
    <g transform="matrix(3.97628,0,0,3.97628,364.48,362.843)">
        <path d="M0,26.372C-6.557,22.002 -10.479,18.279 -10.925,10.067C-11.146,5.997 -12.311,2.657 -15.555,0.059C-16.04,-0.329 -16.672,0.332 -16.217,0.771C-13.062,3.816 -12.256,6.917 -11.985,11.119C-11.835,13.441 -11.708,15.42 -10.681,17.537C-8.57,21.888 -4.215,24.345 -0.169,26.611C-0.008,26.701 0.16,26.478 0,26.372" style="fill-rule:nonzero;"/>
    </g>
    <g transform="matrix(3.97628,0,0,3.97628,359.762,317.117)">
        <path d="M0,31.786C-4.777,28.519 -6.16,25.098 -7.348,19.515C-7.719,17.773 -8.168,16.046 -8.869,14.403C-11.249,8.821 -17.43,6.523 -18.346,0.206C-18.451,-0.519 -19.559,-0.358 -19.471,0.37C-18.64,7.263 -12.079,9.423 -9.625,15.523C-8.239,18.967 -8.497,23.114 -6.727,26.386C-5.297,29.03 -2.73,30.66 -0.221,32.16C0.021,32.305 0.228,31.942 0,31.786" style="fill-rule:nonzero;"/>
    </g>
    <g transform="matrix(3.97628,0,0,3.97628,302.514,368.774)">
        <path d="M0,30.741C1.589,26.535 3.246,22.145 2.343,17.572C1.024,10.895 -5.067,8.36 -4.32,0.665C-4.261,0.06 -5.157,-0.179 -5.27,0.453C-5.958,4.32 -5.054,7.599 -2.714,10.737C-0.71,13.423 1.263,15.818 1.571,19.358C1.901,23.153 0.781,27.027 -0.276,30.641C-0.328,30.821 -0.067,30.92 0,30.741" style="fill-rule:nonzero;"/>
    </g>
    <g transform="matrix(3.97628,0,0,3.97628,291.11,321.989)">
        <path d="M0,37.125C0.955,34.337 1.904,31.414 1.246,28.438C0.563,25.35 -1.678,22.741 -2.884,19.868C-5.682,13.198 -1.829,6.604 -5.728,0.363C-6.118,-0.262 -6.994,0.444 -6.625,1.062C-3.391,6.457 -6.488,12.06 -4.858,17.797C-4.296,19.773 -3.277,21.506 -2.403,23.342C-0.077,28.229 0.979,31.931 -0.419,37.012C-0.493,37.282 -0.09,37.387 0,37.125" style="fill-rule:nonzero;"/>
    </g>
    <g transform="matrix(3.97218,-0.180478,-0.180478,-3.97218,272.877,485.24)">
        <path d="M-0.448,0.084C3.632,5.586 4.534,13.926 0.262,19.629C-0.038,20.028 -0.644,19.593 -0.448,19.164C2.502,12.69 3.186,6.763 -0.656,0.213C-0.726,0.093 -0.53,-0.025 -0.448,0.084" style="fill-rule:nonzero;"/>
    </g>
    <g transform="matrix(3.93203,-0.591582,-0.591582,-3.93203,270.876,397.594)">
        <path d="M-1.211,-0.173C-3.8,5.412 1.396,10.142 -0.22,15.89C-0.392,16.503 -1.346,16.356 -1.211,15.71C-0.011,9.949 -5.058,4.955 -1.675,-0.462C-1.506,-0.731 -1.083,-0.45 -1.211,-0.173" style="fill-rule:nonzero;"/>
    </g>
    <g transform="matrix(3.97628,0,0,3.97628,384.665,383.073)">
        <path d="M0,15.138C-2.875,13.994 -5.407,12.255 -7.417,9.885C-9.895,6.961 -10.743,3.808 -11.665,0.198C-11.784,-0.271 -12.492,-0.196 -12.507,0.292C-12.73,7.292 -6.443,13.605 -0.089,15.367C0.06,15.409 0.151,15.198 0,15.138" style="fill-rule:nonzero;"/>
    </g>
    <g transform="matrix(3.97628,0,0,3.97628,335.008,320.49)">
        <path d="M0,13.707C0.029,11.563 -0.611,9.666 -2.085,8.074C-3.066,7.014 -4.295,6.249 -5.392,5.321C-7.094,3.882 -8.087,2.313 -8.827,0.226C-9.046,-0.391 -9.948,-0.07 -9.781,0.553C-8.224,6.342 -1.209,7.565 -0.55,13.742C-0.512,14.098 -0.005,14.061 0,13.707" style="fill-rule:nonzero;"/>
    </g>
    <g transform="matrix(3.97628,0,0,3.97628,473.496,313.241)">
        <path d="M0,8.161C-3.208,8.517 -6.603,8.945 -9.805,8.367C-14.482,7.522 -16.594,4.825 -19.634,1.807C-22.246,-0.785 -25.212,-1.997 -28.866,-1.999C-29.506,-2 -29.424,-1.074 -28.817,-1.027C-24.503,-0.693 -21.882,1.071 -19.038,4.103C-17.291,5.966 -15.729,7.531 -13.299,8.479C-8.991,10.161 -4.336,9.279 0.049,8.449C0.236,8.414 0.186,8.14 0,8.161" style="fill-rule:nonzero;"/>
    </g>
    <g transform="matrix(3.97628,0,0,3.97628,454.523,284.002)">
        <path d="M0,11.611C-4.407,12.021 -7.546,11.675 -11.092,8.984C-13.187,7.393 -15.072,5.61 -17.395,4.332C-22.983,1.256 -29.462,3.62 -34.423,-0.813C-34.973,-1.305 -35.64,-0.403 -35.114,0.09C-33.487,1.611 -31.796,2.648 -29.604,3.126C-24.355,4.269 -20.553,3.351 -15.806,6.646C-13.446,8.284 -11.444,10.669 -8.744,11.766C-5.917,12.916 -2.877,12.5 0.053,12.038C0.294,12 0.246,11.588 0,11.611" style="fill-rule:nonzero;"/>
    </g>
    <g transform="matrix(3.97628,0,0,3.97628,441.039,321.755)">
        <path d="M0,20.515C-1.549,16.089 -3.223,11.38 -7.189,8.533C-8.845,7.344 -10.622,6.807 -12.557,6.318C-17.014,5.189 -19.928,4.265 -22.659,0.225C-23.012,-0.297 -23.781,0.201 -23.48,0.746C-21.733,3.915 -19.089,5.821 -15.604,6.797C-12.375,7.702 -9.309,7.89 -6.682,10.247C-3.624,12.992 -1.878,16.957 -0.267,20.636C-0.189,20.812 0.062,20.69 0,20.515" style="fill-rule:nonzero;"/>
    </g>
    <g transform="matrix(3.97628,0,0,3.97628,418.617,297.772)">
        <path d="M0,24.314C-0.86,22.051 -1.778,19.632 -3.498,17.854C-6.011,15.255 -9.734,14.662 -12.877,13.129C-17.268,10.99 -18.937,7.915 -21.691,4.154C-23.308,1.948 -25.326,0.616 -27.932,-0.172C-28.623,-0.381 -29.068,0.647 -28.368,0.878C-22.456,2.832 -21.362,8.886 -16.646,12.268C-15.003,13.446 -13.135,14.306 -11.27,15.059C-5.784,17.274 -3.104,18.503 -0.399,24.473C-0.299,24.695 0.087,24.544 0,24.314" style="fill-rule:nonzero;"/>
    </g>
    <g transform="matrix(3.97628,0,0,3.97628,413.101,360.372)">
        <path d="M0,14.723C-0.63,8.196 -5.787,0.762 -12.749,-0.136C-13.157,-0.189 -13.359,0.479 -12.983,0.655C-10.117,1.998 -7.458,3.081 -5.173,5.397C-2.6,8.005 -0.976,11.205 -0.244,14.758C-0.211,14.912 0.015,14.881 0,14.723" style="fill-rule:nonzero;"/>
    </g>
    <g transform="matrix(3.97628,0,0,3.97628,353.998,312.214)">
        <path d="M0,11.058C-5.991,9.393 -5.906,2.126 -11.392,-0.33C-11.984,-0.595 -12.412,0.251 -11.846,0.571C-8.548,2.43 -7.654,5.018 -5.713,7.98C-4.393,9.996 -2.506,11.23 -0.107,11.598C0.246,11.653 0.34,11.153 0,11.058" style="fill-rule:nonzero;"/>
    </g>
    <g transform="matrix(0.679768,-3.91774,-3.91774,-0.679768,444.222,274.371)">
        <path d="M-8.571,-8.9C-12.003,-2.383 -11.015,3.775 -7.834,10.062C-7.605,10.513 -8.275,10.833 -8.571,10.479C-13.121,5.062 -12.552,-3.416 -8.778,-9.034C-8.688,-9.167 -8.497,-9.039 -8.571,-8.9" style="fill-rule:nonzero;"/>
    </g>
    <g transform="matrix(3.97628,0,0,3.97628,391.501,276.144)">
        <path d="M0,4.432C-1.394,2.739 -3.09,1.69 -5.305,1.417C-9.086,0.953 -11.959,1.796 -15.492,-0.28C-15.977,-0.564 -16.529,0.223 -16.055,0.546C-11.11,3.918 -4.888,0.547 -0.415,4.786C-0.194,4.996 0.202,4.677 0,4.432" style="fill-rule:nonzero;"/>
    </g>
    <g transform="matrix(3.97628,0,0,3.97628,478.703,228.825)">
        <path d="M0,-11.759C-1.918,-9.753 -3.831,-7.797 -6.114,-6.205C-10.765,-2.961 -14.592,-3.748 -19.741,-4.018C-23.164,-4.197 -26.108,-3.208 -28.687,-0.943C-29.102,-0.58 -28.516,0.12 -28.07,-0.202C-24.557,-2.744 -21.345,-2.997 -17.164,-2.601C-14.305,-2.33 -11.951,-2.152 -9.251,-3.256C-5.218,-4.905 -2.473,-8.282 0.212,-11.561C0.315,-11.687 0.114,-11.879 0,-11.759" style="fill-rule:nonzero;"/>
    </g>
    <g transform="matrix(3.97628,0,0,3.97628,454.069,237.338)">
        <path d="M0,-13.794C-3.067,-10.664 -5.646,-9.068 -10.229,-8.683C-13.1,-8.441 -15.888,-8.737 -18.732,-8.063C-24.659,-6.659 -27.758,-1.088 -34.247,-1.191C-34.967,-1.203 -35.125,-0.09 -34.388,-0.063C-27.024,0.202 -23.226,-6.449 -16.074,-7.355C-12.476,-7.811 -8.618,-7.005 -5.238,-8.615C-2.987,-9.687 -1.296,-11.632 0.302,-13.482C0.481,-13.69 0.198,-13.996 0,-13.794" style="fill-rule:nonzero;"/>
    </g>
    <g transform="matrix(3.97628,0,0,3.97628,490.898,231.902)">
        <path d="M0,3.849C-4.323,1.278 -9.018,-1.418 -14.25,-0.616C-16.09,-0.334 -17.707,0.495 -19.333,1.344C-22.96,3.236 -26.399,3.996 -30.462,2.848C-31.08,2.673 -31.242,3.587 -30.674,3.797C-26.678,5.267 -23.288,4.614 -19.573,2.717C-12.473,-0.91 -6.905,0.76 -0.134,4.106C0.013,4.179 0.142,3.933 0,3.849" style="fill-rule:nonzero;"/>
    </g>
    <g transform="matrix(3.97628,0,0,3.97628,467.868,249.498)">
        <path d="M0,1.316C-2.549,-0.095 -5.302,-1.568 -8.314,-1.434C-12.051,-1.267 -15.439,0.943 -19.125,1.472C-25.733,2.42 -30.676,-2.086 -37.174,0.543C-37.854,0.818 -37.409,1.849 -36.726,1.588C-30.807,-0.68 -25.76,3.402 -19.797,2.729C-17.784,2.501 -15.827,1.897 -13.916,1.25C-8.887,-0.452 -5.17,-0.654 -0.221,1.69C0.027,1.807 0.248,1.453 0,1.316" style="fill-rule:nonzero;"/>
    </g>
    <g transform="matrix(0.506676,-3.94387,-3.94387,-0.506676,458.167,227.34)">
        <path d="M-11.714,-6.888C-7.648,-1.447 -6.712,6.959 -10.968,12.61C-11.252,12.986 -11.92,12.662 -11.714,12.206C-8.838,5.794 -8.243,-0.538 -11.928,-6.767C-12.012,-6.907 -11.806,-7.011 -11.714,-6.888" style="fill-rule:nonzero;"/>
    </g>
    <g transform="matrix(0.096747,-3.9751,-3.9751,-0.096747,360.986,236.353)">
        <path d="M-7.481,-8.491C-10.024,-2.78 -4.896,1.841 -6.507,7.677C-6.657,8.221 -7.597,8.017 -7.481,7.456C-6.293,1.685 -11.27,-3.259 -7.967,-8.74C-7.807,-9.005 -7.353,-8.778 -7.481,-8.491" style="fill-rule:nonzero;"/>
    </g>
    <g transform="matrix(-1.99099,-3.44191,-3.44191,1.99099,388.326,161.253)">
        <path d="M-8.069,-15.611C-11.53,-9.106 -10.51,-2.982 -7.409,3.309C-7.212,3.707 -7.73,4.232 -8.069,3.841C-12.707,-1.511 -12.051,-10.172 -8.279,-15.736C-8.202,-15.85 -8.004,-15.735 -8.069,-15.611" style="fill-rule:nonzero;"/>
    </g>
    <g transform="matrix(3.97628,0,0,3.97628,382.335,222.708)">
        <path d="M0,-6.957C-2.439,-7.406 -4.611,-6.919 -6.599,-5.409C-9.373,-3.3 -11.152,-1.231 -14.79,-0.614C-15.416,-0.507 -15.379,0.449 -14.719,0.392C-8.728,-0.124 -6.216,-6.77 -0.036,-6.412C0.278,-6.394 0.301,-6.902 0,-6.957" style="fill-rule:nonzero;"/>
    </g>
    <g transform="matrix(3.97628,0,0,3.97628,377.434,161.916)">
        <path d="M0,-27.263C-0.496,-19.551 -1.735,-14.109 -8.503,-9.756C-11.988,-7.514 -14.368,-4.831 -15.011,-0.634C-15.104,-0.02 -14.214,0.192 -14.062,-0.422C-13.014,-4.631 -10.763,-7.007 -7.221,-9.257C-5.306,-10.473 -3.638,-11.64 -2.35,-13.538C0.383,-17.563 0.353,-22.566 0.292,-27.238C0.29,-27.422 0.012,-27.455 0,-27.263" style="fill-rule:nonzero;"/>
    </g>
    <g transform="matrix(3.97628,0,0,3.97628,358.838,199.847)">
        <path d="M0,-32.732C-0.397,-27.528 -1.944,-24.617 -5.825,-21.203C-7.544,-19.689 -9.23,-18.211 -10.616,-16.366C-14.261,-11.513 -13.162,-5.008 -18.173,-1.057C-18.749,-0.603 -18.061,0.28 -17.475,-0.16C-11.653,-4.527 -13.081,-12.173 -8.302,-17.376C-6.161,-19.706 -3.13,-21.398 -1.388,-24.098C0.268,-26.668 0.389,-29.767 0.434,-32.73C0.438,-33.012 0.021,-33.008 0,-32.732" style="fill-rule:nonzero;"/>
    </g>
    <g transform="matrix(3.97628,0,0,3.97628,428.604,174.58)">
        <path d="M0,-19.883C-4.596,-19.131 -9.409,-18.318 -12.935,-15.002C-14.495,-13.535 -15.297,-11.957 -16.155,-10.028C-17.978,-5.926 -19.495,-3.077 -23.891,-1.103C-24.446,-0.853 -24.203,0.031 -23.594,-0.176C-19.891,-1.435 -17.501,-3.967 -15.97,-7.528C-14.629,-10.645 -13.648,-13.349 -10.751,-15.458C-7.639,-17.723 -3.64,-18.695 0.05,-19.594C0.231,-19.639 0.188,-19.914 0,-19.883" style="fill-rule:nonzero;"/>
    </g>
    <g transform="matrix(3.97628,0,0,3.97628,415.774,212.943)">
        <path d="M0,-24.356C-2.849,-23.808 -5.817,-23.173 -8.047,-21.178C-10.31,-19.154 -11.444,-16.085 -13.186,-13.662C-16.275,-9.364 -19.955,-8.611 -24.194,-6.216C-26.399,-4.971 -27.843,-3.246 -28.973,-1.019C-29.307,-0.361 -28.263,0.052 -27.923,-0.584C-24.76,-6.481 -17.343,-6.653 -13.188,-11.789C-11.515,-13.858 -10.393,-16.22 -8.917,-18.411C-6.657,-21.769 -3.662,-22.968 0.108,-23.936C0.381,-24.006 0.272,-24.408 0,-24.356" style="fill-rule:nonzero;"/>
    </g>
    <g transform="matrix(-2.14264,-3.34961,-3.34961,2.14264,370.451,128.635)">
        <path d="M-8.692,-14.933C-4.661,-9.557 -3.621,-0.948 -7.983,4.612C-8.288,5.002 -8.882,4.578 -8.692,4.148C-5.84,-2.339 -5.089,-8.382 -8.9,-14.805C-8.971,-14.926 -8.775,-15.044 -8.692,-14.933" style="fill-rule:nonzero;"/>
    </g>
    <g transform="matrix(3.97628,0,0,3.97628,367.057,212.981)">
        <path d="M0,-10.063C-2.748,-4.44 -9.853,-5.753 -13.249,-0.724C-13.57,-0.249 -12.782,0.273 -12.423,-0.161C-11.141,-1.713 -9.727,-2.884 -7.848,-3.649C-6.515,-4.191 -5.079,-4.444 -3.771,-5.059C-1.64,-6.06 -0.246,-7.669 0.517,-9.886C0.619,-10.183 0.133,-10.336 0,-10.063" style="fill-rule:nonzero;"/>
    </g>
    <g transform="matrix(-3.73911,-1.35273,-1.35273,3.73911,312.379,115.153)">
        <path d="M-2.268,-18.716C-5.658,-12.314 -4.716,-6.01 -1.566,0.223C-1.349,0.651 -1.949,1.076 -2.268,0.699C-6.836,-4.7 -6.278,-13.224 -2.485,-18.832C-2.398,-18.96 -2.192,-18.859 -2.268,-18.716" style="fill-rule:nonzero;"/>
    </g>
    <g transform="matrix(3.97628,0,0,3.97628,311.892,186.365)">
        <path d="M0,-15.337C-1.737,-14.365 -3.021,-13.019 -3.715,-11.122C-4.236,-9.696 -4.278,-8.165 -4.537,-6.684C-4.938,-4.389 -5.758,-2.716 -7.261,-0.954C-7.685,-0.457 -6.964,0.173 -6.508,-0.284C-2.274,-4.523 -4.713,-11.219 0.3,-14.876C0.588,-15.086 0.309,-15.51 0,-15.337" style="fill-rule:nonzero;"/>
    </g>
    <g transform="matrix(-3.89399,0.804778,0.804778,3.89399,255.146,177.768)">
        <path d="M0.698,-4.934C1.041,-3.276 1.36,-1.621 1.571,0.06C1.643,0.629 0.856,0.793 0.698,0.239C0.246,-1.36 -0.123,-2.966 -0.459,-4.593C-0.615,-5.348 0.541,-5.696 0.698,-4.934" style="fill-rule:nonzero;"/>
    </g>
    <g transform="matrix(-3.97548,0.0796143,0.0796143,3.97548,252.716,144.903)">
        <path d="M-0.145,-35.617C1.037,-24.07 0.824,-12.374 1.056,-0.78C1.072,-0.009 -0.129,0.122 -0.145,-0.656C-0.377,-12.28 -1.074,-23.996 -0.343,-35.611C-0.335,-35.722 -0.156,-35.73 -0.145,-35.617" style="fill-rule:nonzero;"/>
    </g>
    <g transform="matrix(-2.47247,3.11411,3.11411,2.47247,203.191,186.839)">
        <path d="M2.068,-3.738C2.406,-2.085 2.711,-0.435 2.923,1.24C2.984,1.725 2.211,1.959 2.068,1.461C1.594,-0.178 1.225,-1.831 0.884,-3.502C0.729,-4.264 1.912,-4.501 2.068,-3.738" style="fill-rule:nonzero;"/>
    </g>
    <g transform="matrix(-2.99393,2.61671,2.61671,2.99393,205.167,128.236)">
        <path d="M11.488,-31.748C12.681,-20.188 12.461,-8.473 12.694,3.134C12.71,3.912 11.503,3.932 11.488,3.154C11.253,-8.456 10.557,-20.158 11.29,-31.757C11.297,-31.872 11.476,-31.855 11.488,-31.748" style="fill-rule:nonzero;"/>
    </g>
    <g transform="matrix(0.12449,3.97433,3.97433,-0.12449,163.186,232.162)">
        <path d="M2.622,-2.136C2.967,-0.484 3.268,1.159 3.493,2.831C3.561,3.335 2.76,3.449 2.622,2.975C2.147,1.333 1.773,-0.324 1.423,-1.997C1.265,-2.758 2.465,-2.891 2.622,-2.136" style="fill-rule:nonzero;"/>
    </g>
    <g transform="matrix(-0.611534,3.92897,3.92897,0.611534,94.7512,159.771)">
        <path d="M17.022,-21.065C18.222,-9.497 17.993,2.241 18.226,13.86C18.242,14.636 17.038,14.545 17.022,13.774C16.79,2.185 16.105,-9.489 16.823,-21.067C16.832,-21.199 17.009,-21.19 17.022,-21.065" style="fill-rule:nonzero;"/>
    </g>
    <g transform="matrix(2.64399,2.96987,2.96987,-2.64399,165.699,300.751)">
        <path d="M1.834,-0.787C2.176,0.87 2.494,2.523 2.705,4.202C2.776,4.769 1.992,4.943 1.834,4.387C1.379,2.786 1.01,1.178 0.674,-0.451C0.518,-1.206 1.677,-1.55 1.834,-0.787" style="fill-rule:nonzero;"/>
    </g>
    <g transform="matrix(2.05669,3.40306,3.40306,-2.05669,30.5841,314.164)">
        <path d="M15.348,-8.785C16.532,2.763 16.317,14.461 16.549,26.056C16.564,26.828 15.362,26.954 15.348,26.174C15.114,14.551 14.419,2.837 15.151,-8.776C15.157,-8.888 15.336,-8.899 15.348,-8.785" style="fill-rule:nonzero;"/>
    </g>
    <g transform="matrix(3.9329,0.585735,0.585735,-3.9329,219.36,349.35)">
        <path d="M0.362,0.004C0.699,1.66 1.003,3.311 1.216,4.989C1.276,5.47 0.503,5.705 0.362,5.211C-0.112,3.572 -0.48,1.92 -0.82,0.248C-0.976,-0.513 0.206,-0.757 0.362,0.004" style="fill-rule:nonzero;"/>
    </g>
    <g transform="matrix(3.76315,1.28434,1.28434,-3.76315,145.264,483.847)">
        <path d="M5.771,-1.109C6.965,10.448 6.744,22.162 6.978,33.768C6.994,34.545 5.787,34.573 5.771,33.795C5.537,22.183 4.84,10.482 5.574,-1.12C5.581,-1.236 5.76,-1.217 5.771,-1.109" style="fill-rule:nonzero;"/>
    </g>
    <g transform="matrix(3.37917,-2.09572,-2.09572,-3.37917,290.742,343.469)">
        <path d="M-1.218,-0.383C-0.874,1.267 -0.572,2.907 -0.347,4.578C-0.278,5.085 -1.08,5.2 -1.218,4.723C-1.695,3.08 -2.068,1.423 -2.418,-0.251C-2.577,-1.011 -1.376,-1.139 -1.218,-0.383" style="fill-rule:nonzero;"/>
    </g>
    <g transform="matrix(3.70841,-1.43474,-1.43474,-3.70841,361.325,481.087)">
        <path d="M-6.484,-1.179C-5.284,10.394 -5.514,22.128 -5.28,33.75C-5.266,34.525 -6.468,34.43 -6.484,33.657C-6.717,22.07 -7.401,10.399 -6.683,-1.179C-6.675,-1.309 -6.497,-1.305 -6.484,-1.179" style="fill-rule:nonzero;"/>
    </g>
    <g transform="matrix(1.25212,-3.77399,-3.77399,-1.25212,333.479,292.566)">
        <path d="M-2.221,-1.808C-1.879,-0.149 -1.56,1.504 -1.351,3.184C-1.28,3.749 -2.063,3.932 -2.221,3.375C-2.675,1.776 -3.041,0.168 -3.376,-1.461C-3.532,-2.218 -2.378,-2.569 -2.221,-1.808" style="fill-rule:nonzero;"/>
    </g>
    <g transform="matrix(1.9188,-3.48267,-3.48267,-1.9188,470.749,309.96)">
        <path d="M-15.969,-9C-14.787,2.545 -15.001,14.24 -14.769,25.834C-14.753,26.606 -15.953,26.741 -15.969,25.965C-16.201,14.338 -16.897,2.621 -16.167,-8.994C-16.159,-9.105 -15.98,-9.113 -15.969,-9" style="fill-rule:nonzero;"/>
    </g>
    <g transform="matrix(-1.46275,-3.69746,-3.69746,1.46275,331.496,233.802)">
        <path d="M-2.183,-3.308C-1.844,-1.654 -1.54,-0.005 -1.326,1.67C-1.264,2.156 -2.04,2.38 -2.183,1.884C-2.657,0.245 -3.025,-1.408 -3.369,-3.079C-3.524,-3.839 -2.34,-4.071 -2.183,-3.308" style="fill-rule:nonzero;"/>
    </g>
    <g transform="matrix(-0.769248,-3.90116,-3.90116,0.769248,404.3,159.837)">
        <path d="M-17.551,-21.304C-16.356,-9.744 -16.577,1.973 -16.343,13.581C-16.328,14.357 -17.535,14.371 -17.551,13.592C-17.785,1.983 -18.48,-9.716 -17.748,-21.314C-17.741,-21.43 -17.562,-21.412 -17.551,-21.304" style="fill-rule:nonzero;"/>
    </g>
    <g transform="matrix(-3.50372,-1.8801,-1.8801,3.50372,300.502,194.582)">
        <path d="M-0.799,-4.474C-0.456,-2.824 -0.155,-1.181 0.071,0.49C0.138,0.994 -0.661,1.12 -0.799,0.642C-1.276,-0.999 -1.65,-2.657 -1.998,-4.33C-2.157,-5.091 -0.957,-5.229 -0.799,-4.474" style="fill-rule:nonzero;"/>
    </g>
    <g transform="matrix(-3.0968,-2.49412,-2.49412,3.0968,297.421,130.989)">
        <path d="M-11.887,-31.829C-10.688,-20.264 -10.917,-8.522 -10.683,3.093C-10.668,3.872 -11.872,3.785 -11.887,3.014C-12.121,-8.575 -12.802,-20.253 -12.087,-31.83C-12.079,-31.961 -11.9,-31.955 -11.887,-31.829" style="fill-rule:nonzero;"/>
    </g>
    <g transform="matrix(3.97628,0,0,3.97628,171.388,89.1767)">
        <path d="M0,-6.082C-0.22,-3.21 0.27,-0.394 2.256,1.826C3.366,3.067 5.121,4.075 6.688,3.003C10.463,0.421 7.024,-7.653 4.615,-9.958C4.355,-10.207 4.039,-9.845 4.181,-9.572C5.701,-6.645 8.617,-2.207 6.921,1.253C5.515,4.125 2.856,1.553 1.826,-0.151C0.773,-1.894 0.103,-4.036 0.163,-6.077C0.165,-6.169 0.007,-6.175 0,-6.082" style="fill-rule:nonzero;"/>
    </g>
    <g transform="matrix(3.34375,-2.15178,-2.15178,-3.34375,193.567,78.733)">
        <path d="M-1.135,-0.331C-0.609,0.889 -0.243,2.165 -0.18,3.496C-0.153,4.04 -1.028,4.173 -1.135,3.626C-1.376,2.394 -1.579,1.165 -1.906,-0.049C-2.041,-0.554 -1.346,-0.822 -1.135,-0.331" style="fill-rule:nonzero;"/>
    </g>
    <g transform="matrix(-3.11912,2.46616,2.46616,3.11912,206.11,117.392)">
        <path d="M0.897,-2.511C1.213,-1.628 1.653,-0.646 1.631,0.307C1.623,0.645 1.1,0.854 0.897,0.546C0.377,-0.249 0.263,-1.345 0.086,-2.26C-0.003,-2.726 0.73,-2.977 0.897,-2.511" style="fill-rule:nonzero;"/>
    </g>
    <g transform="matrix(3.97628,0,0,3.97628,67.0863,156.573)">
        <path d="M0,1.116C1.625,3.331 3.547,5.023 6.296,5.62C7.824,5.952 9.887,5.904 10.744,4.348C13.164,-0.044 4.25,-4.667 1.087,-4.821C0.786,-4.836 0.576,-4.407 0.91,-4.268C4.061,-2.954 8.337,-1.663 9.852,1.805C10.757,3.879 9.3,4.997 7.298,4.92C4.76,4.822 1.524,2.897 0.134,1.022C0.072,0.937 -0.062,1.031 0,1.116" style="fill-rule:nonzero;"/>
    </g>
    <g transform="matrix(1.20106,-3.79055,-3.79055,-1.20106,90.3393,152.751)">
        <path d="M-2.051,-1.362C-1.509,-0.103 -1.141,1.208 -1.089,2.582C-1.067,3.14 -1.954,3.152 -2.051,2.628C-2.28,1.397 -2.479,0.168 -2.801,-1.045C-2.915,-1.477 -2.24,-1.801 -2.051,-1.362" style="fill-rule:nonzero;"/>
    </g>
    <g transform="matrix(-0.764019,3.90219,3.90219,0.764019,124.277,175.796)">
        <path d="M1.479,-1.585C1.8,-0.708 2.258,0.288 2.224,1.236C2.211,1.596 1.663,1.699 1.479,1.418C0.957,0.621 0.842,-0.479 0.653,-1.392C0.555,-1.871 1.316,-2.029 1.479,-1.585" style="fill-rule:nonzero;"/>
    </g>
    <g transform="matrix(3.97628,0,0,3.97628,48.925,267.737)">
        <path d="M0,8.514C2.758,9.22 5.631,9.217 8.136,7.68C9.517,6.831 10.835,5.328 10.153,3.616C8.43,-0.706 -0.361,1.338 -3.01,3.278C-3.279,3.475 -3.068,3.899 -2.748,3.796C0.498,2.755 4.958,0.863 8.246,2.851C11.007,4.521 8.229,6.862 6.377,7.643C4.438,8.46 2.091,8.779 0.026,8.352C-0.078,8.33 -0.101,8.489 0,8.514" style="fill-rule:nonzero;"/>
    </g>
    <g transform="matrix(-1.54061,-3.6657,-3.6657,1.54061,55.4559,283.009)">
        <path d="M-1.994,-2.952C-1.469,-1.743 -1.085,-0.456 -1.025,0.867C-0.997,1.502 -1.88,1.561 -1.994,0.953C-2.226,-0.275 -2.437,-1.5 -2.771,-2.706C-2.895,-3.156 -2.178,-3.374 -1.994,-2.952" style="fill-rule:nonzero;"/>
    </g>
    <g transform="matrix(1.96591,3.4563,3.4563,-1.96591,99.6149,278.832)">
        <path d="M1.21,-0.663C1.521,0.167 1.996,1.132 1.981,2.034C1.973,2.448 1.442,2.621 1.21,2.264C0.713,1.504 0.572,0.445 0.386,-0.43C0.271,-0.971 1.015,-1.178 1.21,-0.663" style="fill-rule:nonzero;"/>
    </g>
    <g transform="matrix(3.97628,0,0,3.97628,125.292,376.248)">
        <path d="M0,11.249C2.365,10.082 4.234,8.643 5.375,6.189C6.072,4.689 6.552,2.451 5.065,1.24C3.484,-0.047 1.264,0.966 -0.174,1.952C-2.535,3.572 -5.009,6.351 -5.665,9.195C-5.746,9.546 -5.277,9.626 -5.112,9.372C-3.842,7.421 -2.841,5.473 -1.107,3.852C0.157,2.67 3.219,0.309 4.794,2.244C5.843,3.534 4.734,5.86 4.025,7.042C3.069,8.636 1.626,10.265 -0.057,11.096C-0.151,11.142 -0.095,11.296 0,11.249" style="fill-rule:nonzero;"/>
    </g>
    <g transform="matrix(-3.53416,-1.82224,-1.82224,3.53416,120.028,407.593)">
        <path d="M-1.031,-3.873C-0.505,-2.657 -0.137,-1.375 -0.076,-0.045C-0.053,0.496 -0.926,0.64 -1.031,0.092C-1.27,-1.139 -1.472,-2.371 -1.798,-3.584C-1.935,-4.087 -1.244,-4.366 -1.031,-3.873" style="fill-rule:nonzero;"/>
    </g>
    <g transform="matrix(3.72135,1.40085,1.40085,-3.72135,151.214,374.298)">
        <path d="M0.494,-0.088C0.826,0.792 1.284,1.768 1.28,2.723C1.278,3.182 0.702,3.192 0.494,2.887C-0.011,2.149 -0.13,1.041 -0.31,0.185C-0.408,-0.276 0.318,-0.55 0.494,-0.088" style="fill-rule:nonzero;"/>
    </g>
    <g transform="matrix(3.97628,0,0,3.97628,260.6,427.882)">
        <path d="M0,8.905C1.204,6.24 1.706,3.336 0.514,0.553C-0.095,-0.866 -1.306,-2.297 -3.024,-1.961C-7.601,-1.068 -7.165,8 -5.686,10.931C-5.549,11.202 -5.07,11.17 -5.118,10.808C-5.554,7.542 -6.273,4.249 -4.875,1.077C-4.145,-0.58 -2.628,-1.962 -1.008,-0.338C1.048,1.722 0.644,6.868 -0.15,8.838C-0.189,8.935 -0.044,9.002 0,8.905" style="fill-rule:nonzero;"/>
    </g>
    <g transform="matrix(-3.88281,0.857076,0.857076,3.88281,252.505,456.314)">
        <path d="M0.084,-4.154C0.625,-2.895 0.997,-1.586 1.048,-0.21C1.068,0.352 0.182,0.351 0.084,-0.174C-0.147,-1.405 -0.347,-2.632 -0.668,-3.845C-0.782,-4.276 -0.104,-4.591 0.084,-4.154" style="fill-rule:nonzero;"/>
    </g>
    <g transform="matrix(3.7597,-1.29439,-1.29439,-3.7597,254.02,409.421)">
        <path d="M-0.462,-0.103C-0.14,0.773 0.318,1.761 0.285,2.709C0.272,3.071 -0.275,3.177 -0.462,2.892C-0.985,2.096 -1.1,0.998 -1.29,0.082C-1.39,-0.399 -0.625,-0.547 -0.462,-0.103" style="fill-rule:nonzero;"/>
    </g>
    <g transform="matrix(3.97628,0,0,3.97628,391.429,392.685)">
        <path d="M0,4.037C-0.714,1.553 -1.837,-0.569 -4.013,-2.102C-5.378,-3.063 -7.546,-3.95 -9,-2.658C-12.757,0.683 -5.969,7.993 -3.029,9.262C-2.727,9.391 -2.463,9.002 -2.711,8.775C-4.247,7.377 -5.841,6.165 -7.068,4.452C-8.094,3.021 -9.841,0.256 -8.764,-1.542C-6.481,-5.354 -0.792,2.012 -0.154,4.094C-0.123,4.195 0.029,4.138 0,4.037" style="fill-rule:nonzero;"/>
    </g>
    <g transform="matrix(-2.40572,3.16596,3.16596,2.40572,382.255,402.154)">
        <path d="M1.601,-3.441C2.126,-2.237 2.513,-0.944 2.569,0.375C2.595,1.007 1.715,1.083 1.601,0.471C1.371,-0.756 1.161,-1.983 0.827,-3.189C0.702,-3.64 1.416,-3.864 1.601,-3.441" style="fill-rule:nonzero;"/>
    </g>
    <g transform="matrix(2.0128,-3.42921,-3.42921,-2.0128,350.941,368.092)">
        <path d="M-1.134,-0.709C-0.826,0.113 -0.347,1.093 -0.365,1.988C-0.373,2.399 -0.899,2.584 -1.134,2.224C-1.631,1.466 -1.771,0.406 -1.956,-0.468C-2.07,-1.008 -1.329,-1.227 -1.134,-0.709" style="fill-rule:nonzero;"/>
    </g>
    <g transform="matrix(3.97628,0,0,3.97628,456.634,300.215)">
        <path d="M0,-4.354C-2.313,-5.922 -4.769,-6.859 -7.611,-6.417C-9.203,-6.168 -11.094,-5.332 -11.22,-3.498C-11.555,1.36 -2.074,2.505 1.051,1.581C1.318,1.501 1.301,1.03 1.005,1.016C-2.256,0.862 -8.253,1.187 -10.082,-2.39C-11.398,-4.966 -7.588,-5.728 -5.882,-5.739C-3.936,-5.75 -1.758,-5.28 -0.104,-4.227C-0.017,-4.171 0.088,-4.293 0,-4.354" style="fill-rule:nonzero;"/>
    </g>
    <g transform="matrix(0.189752,3.97175,3.97175,-0.189752,439.439,282.618)">
        <path d="M1.965,-1.941C2.491,-0.717 2.857,0.558 2.92,1.892C2.946,2.433 2.071,2.562 1.965,2.02C1.724,0.789 1.522,-0.441 1.197,-1.655C1.062,-2.159 1.755,-2.433 1.965,-1.941" style="fill-rule:nonzero;"/>
    </g>
    <g transform="matrix(-0.568509,-3.93543,-3.93543,0.568509,395.969,277.006)">
        <path d="M-1.455,-1.643C-1.141,-0.76 -0.704,0.231 -0.728,1.183C-0.734,1.515 -1.258,1.722 -1.455,1.42C-1.978,0.623 -2.091,-0.475 -2.266,-1.396C-2.354,-1.858 -1.62,-2.105 -1.455,-1.643" style="fill-rule:nonzero;"/>
    </g>
    <g transform="matrix(3.97628,0,0,3.97628,425.627,188.994)">
        <path d="M0,-11.173C-2.927,-10.881 -5.766,-9.831 -7.557,-7.36C-8.54,-6.005 -9.059,-4.094 -7.619,-2.85C-4.31,0.01 2.762,-4.458 4.596,-7.26C4.76,-7.511 4.5,-7.917 4.209,-7.694C1.547,-5.647 -1.228,-3.091 -4.814,-2.98C-7.009,-2.911 -8.272,-4.346 -7.128,-6.463C-5.856,-8.819 -2.343,-10.676 0.016,-11.009C0.12,-11.025 0.105,-11.183 0,-11.173" style="fill-rule:nonzero;"/>
    </g>
    <g transform="matrix(2.68407,2.9337,2.9337,-2.68407,409.684,159.787)">
        <path d="M1.576,-0.764C2.118,0.491 2.486,1.803 2.54,3.173C2.562,3.736 1.674,3.745 1.576,3.218C1.347,1.987 1.147,0.759 0.825,-0.453C0.709,-0.887 1.386,-1.204 1.576,-0.764" style="fill-rule:nonzero;"/>
    </g>
    <g transform="matrix(-3.00058,-2.60909,-2.60909,3.00058,375.046,183.221)">
        <path d="M-0.839,-2.439C-0.518,-1.565 -0.06,-0.573 -0.091,0.373C-0.103,0.739 -0.652,0.844 -0.839,0.557C-1.36,-0.236 -1.476,-1.335 -1.665,-2.246C-1.767,-2.728 -1.003,-2.885 -0.839,-2.439" style="fill-rule:nonzero;"/>
    </g>
    <g transform="matrix(3.97628,0,0,3.97628,312.964,110.07)">
        <path d="M0,-12.958C-1.674,-11.215 -2.897,-9.362 -3.247,-6.903C-3.485,-5.226 -3.368,-2.786 -1.588,-1.941C3.232,0.345 6.401,-9.845 6.04,-12.949C6.001,-13.281 5.53,-13.303 5.459,-12.976C5.014,-10.945 4.767,-8.97 3.896,-7.047C3.168,-5.441 1.644,-2.541 -0.456,-2.579C-2.522,-2.617 -2.619,-5.37 -2.453,-6.86C-2.222,-8.937 -1.322,-11.312 0.126,-12.854C0.199,-12.931 0.073,-13.033 0,-12.958" style="fill-rule:nonzero;"/>
    </g>
    <g transform="matrix(3.94446,0.502077,0.502077,-3.94446,315.423,83.9407)">
        <path d="M0.26,-0.024C0.786,1.185 1.171,2.474 1.228,3.798C1.256,4.432 0.375,4.499 0.26,3.888C0.029,2.661 -0.181,1.434 -0.513,0.228C-0.636,-0.219 0.078,-0.444 0.26,-0.024" style="fill-rule:nonzero;"/>
    </g>
    <g transform="matrix(-3.97616,-0.031159,-0.031159,3.97616,303.053,122.164)">
        <path d="M0.151,-2.768C0.459,-1.943 0.935,-0.966 0.919,-0.066C0.911,0.342 0.38,0.517 0.151,0.167C-0.347,-0.593 -0.487,-1.657 -0.671,-2.532C-0.785,-3.073 -0.042,-3.285 0.151,-2.768" style="fill-rule:nonzero;"/>
    </g>
    <g transform="matrix(3.97628,0,0,3.97628,316.567,256.597)">
        <path d="M0,0.133C-0.344,9.056 -7.327,16.499 -16.457,16.459C-25.397,16.421 -32.822,8.937 -32.783,0.002C-32.745,-8.919 -25.267,-16.363 -16.326,-16.324C-7.151,-16.284 -0.344,-8.79 0,0.133C0.037,1.098 1.531,0.965 1.494,0.002C1.12,-9.728 -6.456,-17.856 -16.457,-17.818C-26.197,-17.782 -34.314,-9.611 -34.278,0.133C-34.241,9.874 -26.072,17.989 -16.326,17.953C-6.269,17.916 1.12,9.737 1.494,0.002C1.531,-0.96 0.037,-0.82 0,0.133" style="fill-rule:nonzero;"/>
    </g>
    <g transform="matrix(3.97628,0,0,3.97628,271.306,257.472)">
        <path d="M0,-0.288C-0.137,2.263 -1.779,4.513 -4.448,4.814C-7.373,5.144 -9.952,2.792 -9.979,-0.117C-10.042,-6.645 -0.356,-6.537 -0.009,-0.087C0.043,0.878 1.537,0.746 1.485,-0.218C1.295,-3.736 -1.424,-6.695 -5.074,-6.646C-8.58,-6.599 -11.475,-3.694 -11.499,-0.187C-11.522,3.319 -8.642,6.26 -5.145,6.332C-1.514,6.407 1.285,3.521 1.476,-0.017C1.527,-0.969 0.052,-1.249 0,-0.288" style="fill-rule:nonzero;"/>
    </g>
    <g transform="matrix(3.97628,0,0,3.97628,292.637,257.798)">
        <path d="M0,-0.37C-0.715,12.911 -20.588,13.294 -20.678,-0.199C-20.767,-13.664 -0.726,-13.484 -0.009,-0.169C0.043,0.796 1.537,0.664 1.485,-0.3C1.139,-6.723 -3.751,-12.156 -10.439,-12.093C-16.875,-12.033 -22.191,-6.707 -22.228,-0.269C-22.265,6.162 -16.918,11.541 -10.509,11.615C-3.839,11.693 1.128,6.353 1.476,-0.099C1.527,-1.051 0.052,-1.331 0,-0.37" style="fill-rule:nonzero;"/>
    </g>
</svg>
